<svg xmlns="http://www.w3.org/2000/svg" width="30" height="31" viewBox="0 0 30 31" fill="none">
  <path d="M21.4705 11.6471C23.3997 13.031 25.763 13.8453 28.3156 13.8453V8.91601C27.8325 8.91611 27.3507 8.86556 26.8781 8.76507V12.6452C24.3257 12.6452 21.9627 11.8309 20.033 10.447V20.5063C20.033 25.5385 15.9681 29.6176 10.9541 29.6176C9.08326 29.6176 7.34438 29.05 5.8999 28.0766C7.54854 29.7683 9.8477 30.8177 12.3913 30.8177C17.4056 30.8177 21.4707 26.7386 21.4707 21.7062V11.6471H21.4705V11.6471ZM23.2438 6.67399C22.2579 5.59303 21.6106 4.19609 21.4705 2.65172V2.0177H20.1083C20.4512 3.9806 21.6207 5.65759 23.2438 6.67399ZM9.07126 24.215C8.52042 23.4902 8.22274 22.6035 8.22408 21.6918C8.22408 19.3903 10.0833 17.5242 12.3772 17.5242C12.8046 17.524 13.2296 17.5897 13.637 17.7195V12.68C13.1609 12.6145 12.6804 12.5867 12.2001 12.5969V16.5194C11.7924 16.3897 11.3672 16.3238 10.9396 16.3242C8.64582 16.3242 6.78667 18.1901 6.78667 20.4919C6.78667 22.1195 7.71599 23.5286 9.07126 24.215Z" fill="#FF004F"/>
  <path d="M20.0332 10.4469C21.9629 11.8308 24.3259 12.6451 26.8783 12.6451V8.76497C25.4536 8.46042 24.1923 7.71325 23.244 6.67399C21.6208 5.65748 20.4514 3.9805 20.1085 2.0177H16.5302V21.706C16.5221 24.0013 14.666 25.8598 12.3771 25.8598C11.0283 25.8598 9.83005 25.2145 9.07115 24.215C7.71598 23.5286 6.78666 22.1194 6.78666 20.492C6.78666 18.1904 8.64582 16.3243 10.9396 16.3243C11.3791 16.3243 11.8027 16.3929 12.2001 16.5195V12.597C7.27414 12.6991 3.3125 16.7384 3.3125 21.7061C3.3125 24.186 4.29904 26.4341 5.9002 28.0767C7.34468 29.05 9.08356 29.6177 10.9544 29.6177C15.9685 29.6177 20.0333 25.5384 20.0333 20.5063V10.4469H20.0332Z" fill="black"/>
  <path d="M26.8782 8.765V7.71585C25.5934 7.71781 24.3339 7.35674 23.2439 6.67392C24.2088 7.73408 25.4794 8.46508 26.8782 8.765ZM20.1084 2.01773C20.0757 1.83014 20.0505 1.64131 20.0331 1.45177V0.817749H15.0925V20.5063C15.0846 22.8012 13.2287 24.6597 10.9395 24.6597C10.2675 24.6597 9.63298 24.4996 9.07106 24.2151C9.82996 25.2146 11.0282 25.8597 12.3771 25.8597C14.6658 25.8597 16.5221 24.0014 16.5301 21.7061V2.01773H20.1084ZM12.2002 12.597V11.4801C11.7873 11.4235 11.3711 11.3951 10.9544 11.3953C5.93989 11.3952 1.875 15.4745 1.875 20.5063C1.875 23.6609 3.47258 26.4411 5.90021 28.0765C4.29905 26.434 3.31251 24.1858 3.31251 21.706C3.31251 16.7384 7.27404 12.6991 12.2002 12.597Z" fill="#00F2EA"/>
</svg>