<svg xmlns="http://www.w3.org/2000/svg" width="25" height="25" viewBox="0 0 25 25" fill="none">
  <path d="M10.417 15.625L10.417 12.5" stroke="#EA4335" stroke-width="2" stroke-linecap="round"/>
  <path d="M14.583 15.625L14.583 12.5" stroke="#EA4335" stroke-width="2" stroke-linecap="round"/>
  <path d="M3.125 7.29167H21.875V7.29167C20.8256 7.29167 20.3009 7.29167 19.8949 7.48369C19.4766 7.68153 19.1399 8.01828 18.942 8.43656C18.75 8.84256 18.75 9.36726 18.75 10.4167V16.8333C18.75 18.719 18.75 19.6618 18.1642 20.2476C17.5784 20.8333 16.6356 20.8333 14.75 20.8333H10.25C8.36438 20.8333 7.42157 20.8333 6.83579 20.2476C6.25 19.6618 6.25 18.719 6.25 16.8333V10.4167C6.25 9.36726 6.25 8.84256 6.05798 8.43656C5.86014 8.01828 5.5234 7.68153 5.10511 7.48369C4.69911 7.29167 4.17441 7.29167 3.125 7.29167V7.29167Z" stroke="#EA4335" stroke-width="2" stroke-linecap="round"/>
  <path d="M10.4873 3.51103C10.606 3.40029 10.8676 3.30243 11.2314 3.23263C11.5953 3.16283 12.0411 3.125 12.4997 3.125C12.9583 3.125 13.4041 3.16283 13.7679 3.23263C14.1318 3.30242 14.3933 3.40029 14.512 3.51103" stroke="#EA4335" stroke-width="2" stroke-linecap="round"/>
</svg>