<svg xmlns="http://www.w3.org/2000/svg" width="30" height="31" viewBox="0 0 30 31" fill="none">
  <g clip-path="url(#clip0_37_990)">
    <path d="M29.4025 8.54951C29.2329 7.91128 28.8986 7.32879 28.4332 6.86033C27.9677 6.39188 27.3874 6.05389 26.7502 5.88019C24.4048 5.24951 15.0298 5.24951 15.0298 5.24951C15.0298 5.24951 5.65479 5.24951 3.30933 5.88019C2.6722 6.05389 2.09186 6.39188 1.62639 6.86033C1.16093 7.32879 0.826667 7.91128 0.657058 8.54951C0.0297852 10.9052 0.0297852 15.8177 0.0297852 15.8177C0.0297852 15.8177 0.0297852 20.7302 0.657058 23.0859C0.826667 23.7241 1.16093 24.3066 1.62639 24.7751C2.09186 25.2435 2.6722 25.5815 3.30933 25.7552C5.65479 26.3859 15.0298 26.3859 15.0298 26.3859C15.0298 26.3859 24.4048 26.3859 26.7502 25.7552C27.3874 25.5815 27.9677 25.2435 28.4332 24.7751C28.8986 24.3066 29.2329 23.7241 29.4025 23.0859C30.0298 20.7302 30.0298 15.8177 30.0298 15.8177C30.0298 15.8177 30.0298 10.9052 29.4025 8.54951Z" fill="#FF0302"/>
    <path d="M11.9614 20.2785V11.3569L19.8023 15.8177L11.9614 20.2785Z" fill="#FEFEFE"/>
  </g>
  <defs>
    <clipPath id="clip0_37_990">
      <rect width="30" height="30" fill="white" transform="translate(0 0.817749)"/>
    </clipPath>
  </defs>
</svg>