<svg xmlns="http://www.w3.org/2000/svg" width="64" height="64" viewBox="0 0 64 64" fill="none">
  <mask id="path-1-outside-1_74_1168" maskUnits="userSpaceOnUse" x="12.0224" y="6.66924" width="45.2981" height="34.7327" fill="black">
    <rect fill="white" x="12.0224" y="6.66924" width="45.2981" height="34.7327"/>
    <path fill-rule="evenodd" clip-rule="evenodd" d="M31.0887 33.731C31.0867 33.7303 31.0847 33.7296 31.0827 33.7289C31.0807 33.7282 31.0787 33.7275 31.0767 33.7269L19.2588 29.6737C15.9937 28.5539 14.2546 24.9993 15.3744 21.7342C16.4942 18.4691 20.0489 16.73 23.314 17.8498L23.9353 18.0629C24.6394 18.3044 24.9914 18.4251 25.2923 18.3399C25.5932 18.2548 25.8679 17.9212 26.4171 17.2541C29.0987 13.9971 33.6155 12.5731 37.8414 14.0224C42.0672 15.4717 44.7593 19.3681 44.8775 23.5854C44.9017 24.4492 44.9138 24.881 45.0991 25.133C45.2844 25.3849 45.6364 25.5056 46.3405 25.7471L49.0901 26.6901C51.1798 27.4068 52.2928 29.6818 51.5761 31.7714L50.1163 36.0281C49.3996 38.1177 47.1246 39.2307 45.035 38.5141L31.0887 33.731Z"/>
  </mask>
  <path fill-rule="evenodd" clip-rule="evenodd" d="M31.0887 33.731C31.0867 33.7303 31.0847 33.7296 31.0827 33.7289C31.0807 33.7282 31.0787 33.7275 31.0767 33.7269L19.2588 29.6737C15.9937 28.5539 14.2546 24.9993 15.3744 21.7342C16.4942 18.4691 20.0489 16.73 23.314 17.8498L23.9353 18.0629C24.6394 18.3044 24.9914 18.4251 25.2923 18.3399C25.5932 18.2548 25.8679 17.9212 26.4171 17.2541C29.0987 13.9971 33.6155 12.5731 37.8414 14.0224C42.0672 15.4717 44.7593 19.3681 44.8775 23.5854C44.9017 24.4492 44.9138 24.881 45.0991 25.133C45.2844 25.3849 45.6364 25.5056 46.3405 25.7471L49.0901 26.6901C51.1798 27.4068 52.2928 29.6818 51.5761 31.7714L50.1163 36.0281C49.3996 38.1177 47.1246 39.2307 45.035 38.5141L31.0887 33.731Z" fill="#7E869E" fill-opacity="0.25"/>
  <path d="M44.8775 23.5854L45.4772 23.5686L44.8775 23.5854ZM45.0991 25.133L44.6158 25.4885L45.0991 25.133ZM26.4171 17.2541L25.9539 16.8728L26.4171 17.2541ZM25.2923 18.3399L25.4557 18.9173L25.2923 18.3399ZM30.8881 34.2965C30.8892 34.2969 30.8903 34.2973 30.8913 34.2976C30.8924 34.2979 30.8932 34.2982 30.8941 34.2985L31.2834 33.1634C31.2822 33.163 31.2811 33.1627 31.2801 33.1623C31.2791 33.162 31.2782 33.1617 31.2774 33.1614L30.8881 34.2965ZM30.882 34.2944C30.8829 34.2947 30.8838 34.295 30.8848 34.2953C30.8858 34.2957 30.8869 34.2961 30.8881 34.2965L31.2774 33.1614C31.2765 33.1611 31.2756 33.1608 31.2746 33.1604C31.2736 33.1601 31.2725 33.1597 31.2713 33.1593L30.882 34.2944ZM31.2713 33.1593L19.4534 29.1062L19.0641 30.2413L30.882 34.2944L31.2713 33.1593ZM14.8069 21.5395C13.5795 25.1181 15.4856 29.014 19.0641 30.2413L19.4534 29.1062C16.5018 28.0939 14.9296 24.8805 15.942 21.9288L14.8069 21.5395ZM23.5086 17.2822C19.9301 16.0549 16.0342 17.961 14.8069 21.5395L15.942 21.9288C16.9543 18.9772 20.1677 17.405 23.1193 18.4173L23.5086 17.2822ZM23.1193 18.4173L23.7407 18.6305L24.13 17.4954L23.5086 17.2822L23.1193 18.4173ZM38.036 13.4548C33.5659 11.9217 28.7893 13.4289 25.9539 16.8728L26.8803 17.6355C29.4081 14.5653 33.6652 13.2244 37.6467 14.5899L38.036 13.4548ZM45.4772 23.5686C45.3523 19.1094 42.5062 14.9879 38.036 13.4548L37.6467 14.5899C41.6282 15.9554 44.1663 19.6268 44.2777 23.6022L45.4772 23.5686ZM46.1458 26.3146L48.8955 27.2577L49.2848 26.1226L46.5351 25.1795L46.1458 26.3146ZM48.8955 27.2577C50.6717 27.8668 51.6178 29.8006 51.0086 31.5768L52.1437 31.9661C52.9679 29.563 51.6879 26.9468 49.2848 26.1226L48.8955 27.2577ZM51.0086 31.5768L49.5487 35.8334L50.6838 36.2227L52.1437 31.9661L51.0086 31.5768ZM49.5487 35.8334C48.9395 37.6096 47.0058 38.5557 45.2296 37.9465L44.8403 39.0816C47.2434 39.9058 49.8596 38.6258 50.6838 36.2227L49.5487 35.8334ZM45.2296 37.9465L31.2834 33.1634L30.8941 34.2985L44.8403 39.0816L45.2296 37.9465ZM44.2777 23.6022C44.2895 24.0226 44.2989 24.3785 44.332 24.659C44.3649 24.9374 44.4294 25.2351 44.6158 25.4885L45.5824 24.7774C45.5835 24.7789 45.5493 24.7347 45.5237 24.5183C45.4984 24.3039 45.4897 24.012 45.4772 23.5686L44.2777 23.6022ZM46.5351 25.1795C46.1711 25.0547 45.9414 24.9751 45.7765 24.8991C45.6196 24.8267 45.5892 24.7866 45.5824 24.7774L44.6158 25.4885C44.7943 25.7312 45.0326 25.8775 45.274 25.9888C45.5074 26.0965 45.8058 26.198 46.1458 26.3146L46.5351 25.1795ZM23.7407 18.6305C24.0807 18.7471 24.3786 18.85 24.629 18.9083C24.8879 18.9685 25.1658 18.9993 25.4557 18.9173L25.1289 17.7626C25.118 17.7657 25.0694 17.7787 24.901 17.7395C24.7242 17.6984 24.494 17.6202 24.13 17.4954L23.7407 18.6305ZM25.9539 16.8728C25.6719 17.2152 25.4859 17.4403 25.3343 17.594C25.1813 17.7492 25.1272 17.7631 25.1289 17.7626L25.4557 18.9173C25.7583 18.8316 25.992 18.6362 26.1888 18.4365C26.3872 18.2354 26.613 17.9602 26.8803 17.6355L25.9539 16.8728Z" fill="#7E869E" fill-opacity="0.25" mask="url(#path-1-outside-1_74_1168)"/>
  <path fill-rule="evenodd" clip-rule="evenodd" d="M38.0359 13.4548C33.5657 11.9217 28.7891 13.4289 25.9537 16.8728C25.6718 17.2152 25.4857 17.4403 25.3342 17.594C25.1812 17.7492 25.1271 17.7631 25.1288 17.7626C25.1178 17.7657 25.0692 17.7787 24.9009 17.7395C24.724 17.6984 24.4938 17.6202 24.1298 17.4953L23.5085 17.2822C19.9299 16.0549 16.034 17.961 14.8067 21.5395C13.5794 25.118 15.4854 29.014 19.064 30.2413L23.7036 31.8325L25.228 31.0867L19.4533 29.1062C16.5016 28.0939 14.9295 24.8804 15.9418 21.9288C16.9541 18.9772 20.1675 17.405 23.1192 18.4173L23.7405 18.6304L23.7676 18.6397L23.7677 18.6398C24.0965 18.7525 24.3851 18.8516 24.6288 18.9083C24.8878 18.9685 25.1656 18.9993 25.4556 18.9172C25.7582 18.8316 25.9918 18.6362 26.1887 18.4365C26.3827 18.2397 26.603 17.9721 26.8627 17.6567L26.8801 17.6355C29.4079 14.5653 33.665 13.2244 37.6466 14.5899C41.6281 15.9554 44.1662 19.6268 44.2776 23.6022L44.2783 23.6297L44.2783 23.6298C44.2898 24.0381 44.2995 24.3846 44.3319 24.659C44.3647 24.9374 44.4293 25.2351 44.6156 25.4885C44.7942 25.7312 45.0324 25.8775 45.2738 25.9888C45.5011 26.0936 45.7897 26.1926 46.1185 26.3053L46.1186 26.3053L46.1457 26.3146L48.8953 27.2577C50.6716 27.8668 51.6176 29.8006 51.0084 31.5768L49.5486 35.8334C48.9394 37.6096 47.0057 38.5557 45.2295 37.9465L37.3264 35.236L38.0722 36.7604L44.8402 39.0816C47.2433 39.9058 49.8595 38.6258 50.6837 36.2227L52.1435 31.9661C52.9677 29.563 51.6877 26.9467 49.2846 26.1226L46.535 25.1795C46.171 25.0547 45.9413 24.9751 45.7764 24.8991C45.6194 24.8267 45.589 24.7866 45.5823 24.7774C45.5833 24.7789 45.5491 24.7347 45.5236 24.5183C45.4983 24.3039 45.4895 24.012 45.4771 23.5686C45.3522 19.1094 42.506 14.9879 38.0359 13.4548Z" fill="#222222"/>
  <path d="M31.7586 31.7582L31.4949 31.2193L32.0339 30.9556L32.2976 31.4946L31.7586 31.7582ZM26.2434 49.6888C26.1359 50.0022 25.7946 50.1692 25.4812 50.0617C25.1677 49.9542 25.0008 49.6129 25.1083 49.2995L26.2434 49.6888ZM20.9088 36.3984L31.4949 31.2193L32.0223 32.2972L21.4362 37.4764L20.9088 36.3984ZM32.2976 31.4946L37.4767 42.0806L36.3988 42.608L31.2196 32.0219L32.2976 31.4946ZM32.3261 31.9529L26.2434 49.6888L25.1083 49.2995L31.191 31.5636L32.3261 31.9529Z" fill="#222222"/>
</svg>